<svg xmlns="http://www.w3.org/2000/svg" viewBox="0 0 24 24" width="24" height="24">
  <path fill="#343E50" d="M20.451 20.452h-3.555v-5.569c0-1.328-.026-3.037-1.851-3.037-1.851 0-2.135 1.445-2.135 2.939v5.667H9.354V9h3.414v1.561h.048c.476-.9 1.635-1.851 3.366-1.851 3.598 0 4.263 2.366 4.263 5.445v6.297zM5.337 7.433c-1.144 0-2.069-.928-2.069-2.071 0-1.144.925-2.071 2.069-2.071s2.07.927 2.07 2.071c0 1.143-.926 2.071-2.07 2.071zm1.782 13.019H3.556V9h3.563v11.452zM22.225 0H1.771C.791 0 0 .771 0 1.772v20.455C0 23.229.791 24 1.771 24h20.454C23.208 24 24 23.229 24 22.227V1.772C24 .771 23.208 0 22.225 0z"/>
</svg>
